<svg t="1629724684361" class="icon" viewBox="0 0 1024 1024" version="1.1" xmlns="http://www.w3.org/2000/svg" p-id="10770" width="200" height="200"><path d="M512 42.688a469.312 469.312 0 1 1 0 938.624A469.312 469.312 0 0 1 512 42.688z m0 75.392a393.92 393.92 0 1 0 0 787.84 393.92 393.92 0 0 0 0-787.84z m235.136 158.72a37.76 37.76 0 0 1 0.448 52.928l-0.448 0.448-123.648 123.648a125.696 125.696 0 1 1-53.312-53.312l123.648-123.648a37.76 37.76 0 0 1 53.312 0zM512 461.824a50.304 50.304 0 1 0 0 100.48 50.304 50.304 0 0 0 0-100.48z m285.184-60.608A305.28 305.28 0 0 1 817.92 512 37.76 37.76 0 1 1 742.4 512a229.76 229.76 0 0 0-15.552-83.52 37.76 37.76 0 1 1 70.272-27.328zM512 206.08c33.856 0 66.944 5.504 98.432 16.192a37.76 37.76 0 0 1-24.32 71.424 230.464 230.464 0 0 0-304.64 214.464V512A37.76 37.76 0 0 1 206.08 512 305.92 305.92 0 0 1 512 206.08z" p-id="10771"></path></svg>
