<svg t="1629724504521" class="icon" viewBox="0 0 1092 1024" version="1.1" xmlns="http://www.w3.org/2000/svg" p-id="7299" width="200" height="200"><path d="M767.629312 0.682667a311.5008 311.5008 0 0 1 307.6096 236.202666c27.8528 109.7728 2.935467 209.578667-73.796267 293.888-41.301333 45.329067-86.016 87.586133-129.4336 130.8672-106.7008 106.2912-213.8112 212.309333-320.170666 318.805334-10.0352 10.103467-15.428267 9.762133-23.893334-0.477867-7.509333-9.0112-16.384-16.930133-25.053866-24.917333-4.9152-4.5056-5.5296-8.123733-0.136534-12.424534 2.594133-2.048 4.778667-4.573867 7.168-6.894933 143.7696-143.291733 287.3344-286.856533 431.581867-429.738667 48.264533-47.786667 77.6192-104.174933 82.056533-171.8272 5.12-78.0288-20.6848-145.749333-76.5952-200.635733C889.553579 77.346133 819.511979 54.135467 739.981312 61.44c-50.517333 4.573867-95.914667 23.893333-135.441067 55.842133-9.147733 7.441067-17.749333 15.633067-26.077866 23.893334C424.247979 294.775467 270.170112 448.512 115.887445 602.112c-20.2752 20.206933-36.522667 42.666667-46.148266 70.109867-27.101867 77.2096 13.789867 169.301333 90.3168 198.656 66.082133 25.326933 127.112533 14.882133 177.7664-35.089067C480.636245 694.818133 622.630912 552.96 764.557312 411.101867c37.341867-37.341867 25.941333-93.661867-21.2992-110.3872a62.2592 62.2592 0 0 0-61.44 9.557333 169.1648 169.1648 0 0 0-16.725333 15.223467C551.633579 438.4768 438.174379 551.3216 325.193045 664.644267c-9.352533 9.4208-14.813867 9.557333-22.869333-0.273067a157.764267 157.764267 0 0 0-21.026133-21.026133c-8.942933-7.509333-10.24-12.424533-0.6144-21.845334 45.4656-43.963733 89.9072-88.951467 134.7584-133.597866 69.973333-69.632 140.219733-138.922667 209.7152-208.896 27.648-27.8528 59.938133-45.2608 99.328-43.4176 51.063467 2.389333 91.067733 26.146133 111.8208 73.728 20.821333 47.786667 16.7936 94.958933-19.729067 134.212266-43.008 46.2848-88.610133 90.248533-133.256533 135.031467-98.440533 98.5088-197.2224 196.744533-295.5264 295.389867a226.9184 226.9184 0 0 1-161.109334 69.0176A220.16 220.16 0 0 1 15.603712 641.570133c11.741867-30.173867 30.856533-55.978667 53.794133-78.984533 155.716267-155.4432 311.432533-310.8864 467.012267-466.466133A331.502933 331.502933 0 0 1 725.167445 1.024c13.858133-2.116267 28.330667-0.273067 42.461867-0.273067" p-id="7300"></path></svg>
