<svg t="1629724556797" class="icon" viewBox="0 0 1024 1024" version="1.1" xmlns="http://www.w3.org/2000/svg" p-id="8194" width="200" height="200"><path d="M939.19762963 563.78153127a38.83614815 38.83614815 0 0 1 38.83614815 38.83614814v284.79841895a38.83614815 38.83614815 0 0 1-33.554432 38.47367825L939.19762963 926.25224651H84.80237037a38.83614815 38.83614815 0 0 1-38.83614815-38.83614815v-284.79841895a38.83614815 38.83614815 0 1 1 77.6722963 0v245.91049008l776.72296296 0.05178073v-245.96227081a38.83614815 38.83614815 0 0 1 38.83614815-38.83614814z m-413.26839824-461.26987735l3.36580032 3.10689186 234.46677095 257.04351881a28.16915319 28.16915319 0 0 1 7.14585126 18.9520403c0 13.15250844-8.64751525 24.13019378-20.03945245 26.40858073l-4.40142931 0.41425306H589.6722963v207.12612264a25.89076502 25.89076502 0 0 1-25.89076503 25.89076624h-103.56306254a25.89076502 25.89076502 0 0 1-25.89076503-25.89076624v-207.12612264H277.53322784a23.04278164 23.04278164 0 0 1-14.34348323-5.12637157l-2.95154727-2.74442194a28.79053156 28.79053156 0 0 1-3.10689185-33.65799465l3.10689185-4.24608593 234.46677095-257.04351881c8.49217066-9.32067555 21.64468031-10.35630577 31.2242631-3.10689186z" p-id="8195"></path></svg>
