<svg t="1629725121541" class="icon" viewBox="0 0 1024 1024" version="1.1" xmlns="http://www.w3.org/2000/svg" p-id="12803" width="200" height="200"><path d="M721.1 64c74.2 0 134.4 60.2 134.4 134.4v233.5l59.3-35.2c19.9-11.8 45.2 2.4 45.2 25.3v449.4c0 48.9-40.1 88.5-89.6 88.5H153.6c-49.5 0-89.6-39.6-89.6-88.5V422.1c0-22.9 25.3-37.1 45.2-25.3l59.3 35.2V198.4c0-74.2 60.2-134.4 134.4-134.4h418.2z m0 89.6H302.9c-24.7 0-44.8 20.1-44.8 44.8V485l207.8 123.1c28.4 16.8 63.8 16.8 92.2 0L765.9 485V198.4c0-24.7-20.1-44.8-44.8-44.8z m-104.6 224c24.7 0 44.8 20.1 44.8 44.8s-20.1 44.8-44.8 44.8h-209c-24.7 0-44.8-20.1-44.8-44.8s20.1-44.8 44.8-44.8h209z m0-149.3c24.7 0 44.8 20.1 44.8 44.8 0 24.7-20.1 44.8-44.8 44.8h-209c-24.7 0-44.8-20.1-44.8-44.8 0-24.7 20.1-44.8 44.8-44.8h209z" p-id="12804" fill="#bfbfbf"></path></svg>
