<svg t="1629810040379" class="icon" viewBox="0 0 1024 1024" version="1.1" xmlns="http://www.w3.org/2000/svg" p-id="5362" width="200" height="200"><path d="M960 940H64c-35.3 0-64-28-64-62.5v-730C0 113 28.7 85 64 85h264.7c14.6 0 28.8 4.9 40.2 13.8l140.7 111H960c35.3 0 64 28 64 62.5v605c0 34.7-28.7 62.7-64 62.7z m0-62.5v31.2-31.2z m-625.2-711H79V866h866l0.1-578.7H509.8c-14.1 0-27.9-4.7-39-13.5l-136-107.3z m7.5 217.7h510c0.6 0 1 0.4 1 1v83.5c0 0.6-0.4 1-1 1h-510c-0.6 0-1-0.4-1-1v-83.5c0-0.5 0.5-1 1-1z" p-id="5363"></path></svg>
